<?xml version="1.0" encoding="UTF-8" standalone="no"?>
<!-- Created with Inkscape (http://www.inkscape.org/) -->

<svg
   xmlns:dc="http://purl.org/dc/elements/1.1/"
   xmlns:cc="http://creativecommons.org/ns#"
   xmlns:rdf="http://www.w3.org/1999/02/22-rdf-syntax-ns#"
   xmlns:svg="http://www.w3.org/2000/svg"
   xmlns="http://www.w3.org/2000/svg"
   xmlns:sodipodi="http://sodipodi.sourceforge.net/DTD/sodipodi-0.dtd"
   xmlns:inkscape="http://www.inkscape.org/namespaces/inkscape"
   width="145.965mm"
   height="41.285mm"
   viewBox="0 0 517.19883 146.28546"
   id="svg2"
   version="1.1"
   inkscape:version="0.91 r13725"
   sodipodi:docname="Jeopardy! logo blue.svg">
  <defs
     id="defs4" />
  <sodipodi:namedview
     id="base"
     pagecolor="#ffffff"
     bordercolor="#666666"
     borderopacity="1.0"
     inkscape:pageopacity="0.0"
     inkscape:pageshadow="2"
     inkscape:zoom="0.70710678"
     inkscape:cx="204.13565"
     inkscape:cy="-34.663683"
     inkscape:document-units="px"
     inkscape:current-layer="layer1"
     showgrid="false"
     inkscape:window-width="1366"
     inkscape:window-height="705"
     inkscape:window-x="-8"
     inkscape:window-y="-8"
     inkscape:window-maximized="1" />
  <metadata
     id="metadata7">
    <rdf:RDF>
      <cc:Work
         rdf:about="">
        <dc:format>image/svg+xml</dc:format>
        <dc:type
           rdf:resource="http://purl.org/dc/dcmitype/StillImage" />
        <dc:title></dc:title>
      </cc:Work>
    </rdf:RDF>
  </metadata>
  <g
     inkscape:label="Layer 1"
     inkscape:groupmode="layer"
     id="layer1"
     transform="translate(0,-906.07685)">
    <g
       id="g4339"
       transform="translate(0,0.25000472)"
       style="fill:#0040ff;fill-opacity:1">
      <path
         sodipodi:nodetypes="ccsscccsssscc"
         inkscape:connector-curvature="0"
         id="rect4147"
         d="M 2.81e-4,993.329 0,1039.5165 c -1.6e-5,6.9783 5.619387,12.5957 12.597656,12.5957 l 29.992185,0 c 6.97827,0 12.59573,-5.6174 12.59571,-12.5957 l -2.7e-4,-133.6873 -19.19114,-2e-4 0,124.3008 c 0,2.7405 -2.20675,4.9472 -4.94727,4.9472 l -6.90625,0 c -2.74051,0 -4.947262,-2.2067 -4.947262,-4.9472 l 0,-36.8008 z"
         style="fill:#0040ff;fill-opacity:1;fill-rule:nonzero;stroke:none;stroke-width:10;stroke-linecap:square;stroke-linejoin:bevel;stroke-miterlimit:4;stroke-dasharray:none;stroke-opacity:0.35195528" />
      <path
         id="rect4149"
         d="m 76.802731,905.829 c -6.97827,0 -12.5957,5.61938 -12.5957,12.59765 l 0,121.08985 c 0,6.9783 5.61743,12.5957 12.5957,12.5957 l 39.306639,0 0,-17.0352 -28.041009,0 c -2.74052,0 -4.94531,-2.2067 -4.94531,-4.9472 l 0,-15.9336 c 0,-2.7405 2.20479,-4.9473 4.94531,-4.9473 l 28.041009,0 0,-16.59764 -28.041009,0 c -2.74052,0 -4.94531,-2.20675 -4.94531,-4.94726 l 0,-17.18555 c 0,-2.74051 2.20479,-4.94531 4.94531,-4.94531 l 28.041009,0 0,-59.74414 -39.306639,0 z"
         style="fill:#0040ff;fill-opacity:1;fill-rule:nonzero;stroke:none;stroke-width:10;stroke-linecap:square;stroke-linejoin:bevel;stroke-miterlimit:4;stroke-dasharray:none;stroke-opacity:0.35195528"
         inkscape:connector-curvature="0" />
      <path
         sodipodi:nodetypes="ssssssssssssssssss"
         inkscape:connector-curvature="0"
         id="rect4165"
         d="m 138.23242,905.829 c -6.97827,0 -12.59766,5.61938 -12.59766,12.59765 l 0,121.08985 c 0,6.9783 5.61939,12.5957 12.59766,12.5957 l 27.49219,-2e-4 c 6.97827,0 12.5957,-5.6172 12.5957,-12.5955 l 0,-121.08985 c 0,-6.97827 -5.61743,-12.59765 -12.5957,-12.59765 z m 12.66602,59.83789 2.16015,0 c 3.31116,0 5.97657,2.6654 5.97657,5.97656 l 0,57.45705 c 0,3.3111 -2.66541,5.9765 -5.97657,5.9765 l -2.16015,0 c -3.31117,0 -5.97657,-2.6654 -5.97657,-5.9765 l 0,-57.45705 c 0,-3.31116 2.6654,-5.97656 5.97657,-5.97656 z"
         style="fill:#0040ff;fill-opacity:1;fill-rule:nonzero;stroke:none;stroke-width:10;stroke-linecap:square;stroke-linejoin:bevel;stroke-miterlimit:4;stroke-dasharray:none;stroke-opacity:0.35195528" />
      <path
         id="rect4175"
         d="m 267.96289,905.829 c -6.99953,0 -13.07395,5.61938 -13.61914,12.59765 l -10.44531,133.68555 17.96484,0 4.01172,-42.8633 17.65625,0 4.01172,42.8633 17.96484,0 L 295.0625,918.42665 C 294.51726,911.44838 288.44289,905.829 281.44336,905.829 l -13.48047,0 z m 5.14062,60.08984 3.19922,0 c 1.75742,0 3.305,1.40843 3.46875,3.1582 l 2.20703,23.57422 -14.55078,0 2.20703,-23.57422 c 0.16375,-1.74977 1.71133,-3.1582 3.46875,-3.1582 z"
         style="fill:#0040ff;fill-opacity:1;fill-rule:nonzero;stroke:none;stroke-width:10;stroke-linecap:square;stroke-linejoin:bevel;stroke-miterlimit:4;stroke-dasharray:none;stroke-opacity:0.35195528"
         inkscape:connector-curvature="0" />
      <path
         sodipodi:nodetypes="ccccccccscccccscccccccssccsssscc"
         inkscape:connector-curvature="0"
         id="rect4208"
         d="m 313.97851,905.8292 0,146.283 17.70899,0 0,-42.5039 9.41211,0 c 4.83542,0 9.01278,3.8827 9.36719,8.7051 l 2.48437,33.7988 19.06641,0 -4.91211,-38.6856 c -0.0891,-0.7017 -0.24672,-1.3847 -0.44141,-2.0546 l 0,-0.023 c -0.009,-0.031 -0.0221,-0.059 -0.0312,-0.09 -0.12575,-0.4193 -0.27154,-0.8307 -0.43555,-1.2344 -0.0105,-0.026 -0.0187,-0.052 -0.0293,-0.078 -0.74149,-1.7948 -1.84771,-3.4193 -3.21485,-4.7871 -0.33787,-0.3381 -0.69262,-0.6582 -1.06054,-0.9629 -0.006,0 -0.01,-0.011 -0.0156,-0.016 -0.008,-0.01 -0.0174,-0.011 -0.0254,-0.018 -0.35701,-0.2936 -0.72537,-0.5704 -1.10742,-0.8301 -0.0202,-0.014 -0.0403,-0.027 -0.0605,-0.041 -0.39293,-0.2643 -0.79692,-0.5106 -1.21289,-0.7363 3.40742,-1.8492 6.09222,-5.03379 7.19336,-8.79299 l 0,-75.33594 c 0,-6.97827 -5.61743,-12.59707 -12.5957,-12.59707 z m 17.70899,59.83769 10.2207,0 c 3.31116,0 5.97656,2.6654 5.97656,5.97656 l 0,15.60937 c 0,3.31116 -2.6654,5.97657 -5.97656,5.97657 l -10.2207,0 z"
         style="fill:#0040ff;fill-opacity:1;fill-rule:nonzero;stroke:none;stroke-width:10;stroke-linecap:square;stroke-linejoin:bevel;stroke-miterlimit:4;stroke-dasharray:none;stroke-opacity:0.35195528" />
      <path
         sodipodi:nodetypes="ccssssccsssscc"
         inkscape:connector-curvature="0"
         id="rect4231"
         d="m 379.24414,905.829 0,146.2832 40.08984,0 c 6.97827,0 12.59571,-5.6174 12.59571,-12.5957 l 0,-121.08985 c 0,-6.97827 -5.61744,-12.59735 -12.59571,-12.59739 z m 17.26562,59.83789 12.17774,0 c 3.31116,0 5.97851,2.6654 5.97851,5.97656 l 0,57.45705 c 0,3.3111 -2.66735,5.9766 -5.97851,5.9765 l -12.17774,0 z"
         style="fill:#0040ff;fill-opacity:1;fill-rule:nonzero;stroke:none;stroke-width:10;stroke-linecap:square;stroke-linejoin:bevel;stroke-miterlimit:4;stroke-dasharray:none;stroke-opacity:0.35195528" />
      <path
         id="rect4239"
         d="m 500.54297,905.82926 0,103.42004 16.65234,0 0,-103.42004 z m 0,109.67554 0,16.543 16.65234,0 0,-16.543 z"
         style="fill:#0040ff;fill-opacity:1;fill-rule:nonzero;stroke:none;stroke-width:10;stroke-linecap:square;stroke-linejoin:bevel;stroke-miterlimit:4;stroke-dasharray:none;stroke-opacity:0.35195528"
         inkscape:connector-curvature="0"
         sodipodi:nodetypes="cccccccccc" />
      <path
         sodipodi:nodetypes="ssssccssssccssssccs"
         inkscape:connector-curvature="0"
         style="fill:#0040ff;fill-opacity:1;fill-rule:nonzero;stroke:none;stroke-width:10;stroke-linecap:square;stroke-linejoin:bevel;stroke-miterlimit:4;stroke-dasharray:none;stroke-opacity:0.35195528"
         d="m 76.802731,905.829 c -6.97827,0 -12.5957,5.61938 -12.5957,12.59765 l 0,121.08985 c 0,6.9783 5.61743,12.5957 12.5957,12.5957 l 39.306639,0 0,-17.0352 -28.041009,0 c -2.74052,0 -4.94531,-2.2067 -4.94531,-4.9472 l 0,-15.9336 c 0,-2.7405 2.20479,-4.9473 4.94531,-4.9473 l 28.041009,0 0,-16.59786 -28.041009,0 c -2.74052,0 -4.94531,-2.20653 -4.94531,-4.94704 l 0,-17.18555 c 0,-2.74051 2.20479,-4.94531 4.94531,-4.94531 l 28.041009,0 0,-59.74414 z"
         id="path4258" />
      <path
         sodipodi:nodetypes="ccccssssccsssscc"
         inkscape:connector-curvature="0"
         id="path4262"
         d="m 188.26562,905.829 0,146.283 18.77966,0 0,-42.863 21.30823,-10e-5 c 6.97827,0 12.59766,-5.6174 12.59766,-12.59568 l 0,-78.22657 c 0,-6.97827 -5.61939,-12.59765 -12.59766,-12.59765 z m 18.7793,59.74414 10.17969,0 c 2.74052,0 4.94531,2.2048 4.94531,4.94531 l 0,17.18555 c 0,2.74051 -2.20479,4.94699 -4.94531,4.94704 l -10.17933,2.2e-4 z"
         style="fill:#0040ff;fill-opacity:1;fill-rule:nonzero;stroke:none;stroke-width:10;stroke-linecap:square;stroke-linejoin:bevel;stroke-miterlimit:4;stroke-dasharray:none;stroke-opacity:0.35195528" />
      <path
         sodipodi:nodetypes="cssccccccsccccscc"
         inkscape:connector-curvature="0"
         id="path4296"
         d="m 438.1543,905.82918 0,90.82404 c 0,6.97828 5.61938,12.59568 12.59765,12.59568 l 22.72266,4e-4 0,21.318 c 1e-5,2.7405 -2.20479,4.9472 -4.94531,4.9472 l -14.52735,0 0,16.5977 24.24024,0 c 6.97827,0 12.59765,-5.6174 12.59765,-12.5957 l 0,-133.68728 -17.36523,-4e-5 0,86.82208 -11.59375,0 c -2.74052,-5e-5 -4.94532,-2.20675 -4.94531,-4.94726 l 0,-81.87474 z"
         style="fill:#0040ff;fill-opacity:1;fill-rule:nonzero;stroke:none;stroke-width:10;stroke-linecap:square;stroke-linejoin:bevel;stroke-miterlimit:4;stroke-dasharray:none;stroke-opacity:0.35195528" />
    </g>
  </g>
</svg>
